<svg xmlns="http://www.w3.org/2000/svg" width="120" height="51" viewBox="0 0 120 51" fill="none">
<g clip-path="url(#clip0_15692_4134)">
<path d="M25.8729 14.0811H16.3235V36.9187L25.8729 14.0811Z" fill="#AAB0B5"/>
<path d="M32.592 14.0811H42.129V36.9187L32.592 14.0811Z" fill="#AAB0B5"/>
<path d="M29.232 22.499L35.31 36.9196H31.3223L29.5057 32.3284H25.0576L29.232 22.499Z" fill="#AAB0B5"/>
<path d="M57.7079 28.6073L58.8339 31.836C58.8713 31.9169 58.9273 31.9542 59.0268 31.9542H61.1917C61.3099 31.9542 61.3286 31.8982 61.3099 31.78L56.837 19.3565C56.8183 19.2569 56.7996 19.2383 56.7001 19.2383H54.0126C53.9379 19.2383 53.8944 19.2943 53.8944 19.3751C53.857 20.0284 53.8011 20.2274 53.7202 20.4203L49.7325 31.7614C49.7138 31.8982 49.7573 31.9542 49.8693 31.9542H51.8041C51.9223 31.9542 51.9783 31.9169 52.0218 31.7987L53.0856 28.6073H57.7079ZM53.7015 26.4983C54.2863 24.7315 55.0577 22.467 55.3688 21.173H55.3874C55.7732 22.5292 56.6814 25.2168 57.092 26.4983H53.7015Z" fill="#AAB0B5"/>
<path d="M67.0602 32.1455C68.2235 32.1455 69.4615 31.9339 70.7182 31.3927C70.8177 31.3554 70.8364 31.3118 70.8364 31.2185C70.799 30.8701 70.7555 30.3662 70.7555 29.9805V18.2848C70.7555 18.2102 70.7555 18.1729 70.6622 18.1729H68.5532C68.4724 18.1729 68.435 18.2102 68.435 18.3097V22.2726C68.1053 22.2352 67.8751 22.2166 67.6014 22.2166C64.1984 22.2166 62.1082 24.4624 62.1082 27.2681C62.1082 30.5218 64.2544 32.1455 67.0602 32.1455V32.1455ZM68.435 29.9805C68.0866 30.0925 67.7009 30.136 67.309 30.136C65.7662 30.136 64.5033 29.2651 64.5033 27.1499C64.5033 25.2774 65.8035 24.17 67.5267 24.17C67.8751 24.17 68.18 24.2073 68.435 24.3069V29.9805Z" fill="#AAB0B5"/>
<path d="M77.565 22.2148C74.6597 22.2148 72.8618 24.442 72.8618 27.1917C72.8618 29.6491 74.2927 32.1437 77.5214 32.1437C80.2525 32.1437 82.1686 30.1343 82.1686 27.1295C82.1686 24.4793 80.5449 22.2148 77.565 22.2148ZM77.4468 24.1683C79.0891 24.1683 79.7859 25.5805 79.7859 27.1917C79.7859 29.1825 78.7594 30.1716 77.565 30.1716C76.0906 30.1716 75.2196 28.9336 75.2196 27.1482C75.2196 25.313 76.1466 24.1683 77.4468 24.1683V24.1683Z" fill="#AAB0B5"/>
<path d="M84.3488 18.1729C84.2679 18.1729 84.2119 18.2102 84.2119 18.3097V31.5482C84.2119 31.6042 84.2679 31.7038 84.3488 31.7224C85.2757 32.0086 86.2462 32.1455 87.2478 32.1455C90.1157 32.1455 92.9028 30.3662 92.9028 26.7829C92.9028 24.1887 91.1236 22.2166 88.3365 22.2166C87.6957 22.2166 87.0985 22.3161 86.5759 22.4903L86.5511 18.3284C86.5511 18.1915 86.5137 18.1729 86.3769 18.1729H84.3488ZM90.5201 27.0193C90.5201 29.1656 89.0519 30.1734 87.4656 30.1734C87.1358 30.1734 86.8434 30.1547 86.5759 30.0738V24.4251C86.8808 24.3069 87.2478 24.2073 87.9259 24.2073C89.4563 24.2073 90.5201 25.1778 90.5201 27.0193Z" fill="#AAB0B5"/>
<path d="M100.773 27.7143C101.718 27.7143 102.496 27.6956 102.763 27.6334C102.863 27.6148 102.9 27.5774 102.919 27.4966C102.975 27.285 103 26.8433 103 26.3021C103 24.4607 101.892 22.2148 99.0308 22.2148C96.1069 22.2148 94.4832 24.5975 94.4832 27.285C94.4832 29.6677 95.7398 32.1437 99.261 32.1437C100.58 32.1437 101.432 31.9322 102.166 31.5838C102.241 31.5465 102.278 31.4843 102.278 31.3723V29.761C102.278 29.6677 102.222 29.6491 102.166 29.6864C101.432 29.9974 100.636 30.153 99.7649 30.153C97.7928 30.153 96.8969 29.0643 96.841 27.7143H100.773ZM96.8409 26.047C96.9965 25.1014 97.5937 24.075 98.9312 24.075C100.406 24.075 100.791 25.313 100.791 25.8729C100.791 25.8915 100.791 25.9724 100.791 26.0284C100.71 26.047 100.462 26.047 99.7275 26.047H96.8409Z" fill="#AAB0B5"/>
</g>
<defs>
<clipPath id="clip0_15692_4134">
<rect width="86.6766" height="22.8377" fill="white" transform="translate(16.3235 14.0811)"/>
</clipPath>
</defs>
</svg>