<svg xmlns="http://www.w3.org/2000/svg" width="120" height="51" viewBox="0 0 120 51" fill="none">
<g clip-path="url(#clip0_16755_41608)">
<path d="M15.2139 24.6609L19.2166 20.6584L23.2214 24.663L25.5504 22.334L19.2166 16L12.8849 22.3319L15.2139 24.6609Z" fill="#AAB0B5"/>
<path d="M13.5691 26.3051L11.2401 23.9761L8.911 26.3052L11.24 28.6342L13.5691 26.3051Z" fill="#AAB0B5"/>
<path d="M15.2139 27.9502L19.2166 31.9527L23.2212 27.9482L25.5516 30.276L25.5504 30.2773L19.2166 36.6111L12.8847 30.2794L12.8815 30.2761L15.2139 27.9502Z" fill="#AAB0B5"/>
<path d="M27.1932 28.6353L29.5223 26.3062L27.1933 23.9772L24.8642 26.3063L27.1932 28.6353Z" fill="#AAB0B5"/>
<path d="M21.579 26.3043H21.58L19.2166 23.9409L17.47 25.6875H17.4698L17.2693 25.8882L16.8553 26.3022L16.8521 26.3054L16.8553 26.3089L19.2166 28.6701L21.58 26.3067L21.5811 26.3054L21.579 26.3043Z" fill="#AAB0B5"/>
<path d="M33.1532 20.9941H38.2187C39.476 20.9941 40.4267 21.3168 41.071 21.9621C41.5696 22.4619 41.8188 23.0813 41.8188 23.8202V23.8514C41.8188 24.1637 41.7803 24.4396 41.7026 24.6789C41.6251 24.9185 41.5216 25.1342 41.3922 25.3268C41.2631 25.5195 41.113 25.6887 40.9424 25.8342C40.7716 25.9801 40.5881 26.1051 40.3917 26.209C41.0236 26.4486 41.5211 26.7737 41.8838 27.1849C42.2463 27.5963 42.4278 28.1662 42.4278 28.8947V28.9258C42.4278 29.4255 42.3318 29.8626 42.1395 30.2375C41.9473 30.6121 41.6718 30.9245 41.3132 31.1744C40.9546 31.4243 40.5234 31.6115 40.0194 31.7365C39.5154 31.8613 38.9568 31.9237 38.3439 31.9237H33.1532V20.9941ZM37.7123 25.4127C38.2433 25.4127 38.6649 25.3219 38.977 25.1396C39.2892 24.9574 39.4454 24.6633 39.4454 24.2574V24.2262C39.4454 23.862 39.3099 23.5836 39.0394 23.3909C38.7686 23.1983 38.3783 23.1019 37.8684 23.1019H35.4951V25.4127H37.7123ZM38.3525 29.8161C38.8834 29.8161 39.2995 29.72 39.6016 29.5273C39.9034 29.3347 40.0545 29.0353 40.0545 28.6293V28.5982C40.0545 28.2339 39.9139 27.9451 39.6329 27.7315C39.3518 27.5184 38.899 27.4116 38.2744 27.4116H35.4951V29.8162L38.3525 29.8161Z" fill="#AAB0B5"/>
<path d="M45.4446 20.9941H47.8493V31.924H45.4446V20.9941Z" fill="#AAB0B5"/>
<path d="M51.4915 20.9941H53.7083L58.8299 27.7239V20.9941H61.2032V31.924H59.1579L53.8646 24.9758V31.924H51.4915V20.9941Z" fill="#AAB0B5"/>
<path d="M68.4832 20.9165H70.7002L75.3847 31.9244H72.8707L71.8713 29.4731H67.2496L66.2504 31.9244H63.7986L68.4832 20.9165ZM71.0126 27.3493L69.5604 23.805L68.1086 27.3493H71.0126Z" fill="#AAB0B5"/>
<path d="M77.9803 20.9941H80.1977L85.3189 27.7239V20.9941H87.6922V31.924H85.6469L80.3537 24.9758V31.924H77.9803V20.9941Z" fill="#AAB0B5"/>
<path d="M96.3461 32.1111C95.5442 32.1111 94.8003 31.9652 94.1131 31.674C93.426 31.3828 92.8328 30.9844 92.3332 30.4795C91.8334 29.9746 91.4429 29.3787 91.1622 28.6917C90.8811 28.0046 90.7406 27.2707 90.7406 26.49V26.4589C90.7406 25.6781 90.8811 24.947 91.1622 24.2651C91.443 23.5833 91.8334 22.9848 92.3332 22.4695C92.8326 21.9543 93.4314 21.5481 94.1286 21.2515C94.8258 20.9549 95.5966 20.8066 96.4397 20.8066C96.9494 20.8066 97.4152 20.8485 97.8368 20.9315C98.2584 21.015 98.6408 21.1293 98.9846 21.275C99.3283 21.4208 99.6454 21.5978 99.9373 21.8058C100.228 22.0142 100.499 22.2431 100.749 22.493L99.219 24.2573C98.7917 23.8723 98.3574 23.5702 97.9151 23.3517C97.4725 23.1332 96.9756 23.0238 96.4239 23.0238C95.9658 23.0238 95.5416 23.1124 95.1516 23.2894C94.7612 23.4663 94.4254 23.7108 94.1442 24.023C93.8634 24.3353 93.6448 24.6972 93.4883 25.1082C93.3325 25.5196 93.2546 25.9593 93.2546 26.4276V26.4587C93.2546 26.9271 93.3325 27.3697 93.4883 27.7858C93.6448 28.2024 93.8603 28.5665 94.1366 28.8787C94.4122 29.191 94.7454 29.4384 95.1356 29.6206C95.5263 29.8029 95.9556 29.8937 96.4239 29.8937C97.0487 29.8937 97.5765 29.7793 98.0085 29.5503C98.4406 29.3215 98.8702 29.0091 99.2968 28.6134L100.827 30.1592C100.546 30.4612 100.254 30.7319 99.9527 30.9711C99.6507 31.2107 99.3203 31.4162 98.961 31.5881C98.6021 31.7596 98.2088 31.89 97.7824 31.9783C97.3552 32.0667 96.8766 32.1111 96.3461 32.1111Z" fill="#AAB0B5"/>
<path d="M103.657 20.9941H111.886V23.1334H106.03V25.3506H111.183V27.4896H106.03V29.785H111.964V31.924H103.657V20.9941Z" fill="#AAB0B5"/>
</g>
<defs>
<clipPath id="clip0_16755_41608">
<rect width="102.886" height="20.611" fill="white" transform="translate(9 16)"/>
</clipPath>
</defs>
</svg>