<svg xmlns="http://www.w3.org/2000/svg" width="133" height="51" viewBox="0 0 133 51" fill="none">
<path d="M36.4869 30.262C33.8159 30.262 31.8649 28.1652 31.8649 25.6025C31.8649 23.0397 33.8391 20.873 36.5102 20.873C38.2057 20.873 39.2509 21.5021 40.087 22.4107L38.8096 23.7853C38.1825 23.1096 37.5089 22.667 36.4869 22.667C35.0004 22.667 33.9088 23.9716 33.9088 25.5559C33.9088 27.1867 35.0237 28.4681 36.6031 28.4681C37.5786 28.4681 38.2754 28.0021 38.9257 27.3498L40.1567 28.5846C39.2509 29.5631 38.2289 30.262 36.4869 30.262Z" fill="#AAB0B5"/>
<path d="M44.0349 30.2614H41.9678V20.8958H44.0349V23.0858C44.5924 21.7578 45.6376 20.8259 47.217 20.8958V23.0858H47.1008C45.3124 23.0858 44.0582 24.2506 44.0582 26.6503L44.0349 30.2614Z" fill="#AAB0B5"/>
<path d="M57.9712 20.873L53.4421 32.7781H51.3517L52.3504 30.262L48.4484 20.873H50.6317L53.2795 27.8157L55.8344 20.873H57.9712Z" fill="#AAB0B5"/>
<path d="M64.033 22.667C62.6394 22.667 61.4316 23.8085 61.4316 25.5559C61.4316 27.3265 62.6626 28.4448 64.033 28.4448C65.4498 28.4448 66.5879 27.3265 66.5879 25.5559C66.5879 23.7852 65.4265 22.667 64.033 22.667ZM64.4975 30.2387C63.0342 30.2387 62.0819 29.4932 61.478 28.6545V32.7781H59.4109V20.873H61.478V22.5505C62.1516 21.6186 63.0807 20.873 64.4975 20.873C66.6111 20.873 68.6783 22.5505 68.6783 25.5559C68.6783 28.538 66.6343 30.2387 64.4975 30.2387Z" fill="#AAB0B5"/>
<path d="M73.1842 22.8295V27.2561C73.1842 28.0482 73.5791 28.3744 74.2991 28.3744H75.112V30.2149H73.6952C72.2087 30.2149 71.1403 29.5392 71.1403 27.5822V22.8295H70.0022V21.0589H71.1403V18.5894H73.2075V21.0589H75.1353V22.8295H73.1842Z" fill="#AAB0B5"/>
<path d="M81.5922 22.667C79.9431 22.667 78.8747 23.9716 78.8747 25.5559C78.8747 27.1634 80.0128 28.4681 81.5922 28.4681C83.2413 28.4681 84.3097 27.1634 84.3097 25.5792C84.3562 23.9949 83.2181 22.667 81.5922 22.667ZM81.5922 30.262C78.8747 30.262 76.854 28.1652 76.854 25.6025C76.854 23.0164 78.8979 20.873 81.6387 20.873C84.3794 20.873 86.4001 22.9698 86.4001 25.5559C86.4001 28.1186 84.3794 30.262 81.5922 30.262Z" fill="#AAB0B5"/>
<path d="M106.05 22.667C104.401 22.667 103.332 23.9716 103.332 25.5559C103.332 27.1634 104.471 28.4681 106.05 28.4681C107.699 28.4681 108.767 27.1634 108.767 25.5792C108.814 23.9949 107.676 22.667 106.05 22.667ZM106.05 30.262C103.332 30.262 101.312 28.1652 101.312 25.6025C101.312 23.0164 103.356 20.873 106.096 20.873C108.837 20.873 110.858 22.9698 110.858 25.5559C110.858 28.1186 108.814 30.262 106.05 30.262Z" fill="#AAB0B5"/>
<path d="M123.075 20.873C125.026 20.873 126.234 22.1078 126.234 24.3211V30.2387H124.167V24.9268C124.167 23.4824 123.493 22.7369 122.355 22.7369C121.24 22.7369 120.427 23.529 120.427 24.9734V30.262H118.36V24.9268C118.36 23.529 117.663 22.7369 116.548 22.7369C115.41 22.7369 114.621 23.5989 114.621 24.9967V30.262H112.553V20.873H114.621V22.4107C115.201 21.6186 115.968 20.873 117.338 20.873C118.639 20.873 119.521 21.5021 120.009 22.4573C120.776 21.5021 121.705 20.873 123.075 20.873Z" fill="#AAB0B5"/>
<path d="M90.1863 28.3513V29.423L90.1166 29.5162L89.2107 30.0288H89.0946L88.1888 29.5162L88.1423 29.423V28.3513L88.1888 28.2582L89.0946 27.7456H89.2107L90.1166 28.2582L90.1863 28.3513Z" fill="#AAB0B5"/>
<path d="M96.4108 30.2389C93.7397 30.169 91.8351 28.0489 91.8584 25.4862C91.9048 22.9235 93.9255 20.8034 96.5966 20.8733C98.2921 20.9199 99.3373 21.5722 100.15 22.5041L98.8495 23.8554C98.2456 23.1797 97.5721 22.6905 96.5501 22.6905C95.0636 22.6672 93.9487 23.9253 93.9255 25.5328C93.8791 27.1636 94.9707 28.4683 96.5501 28.4916C97.5256 28.5149 98.2456 28.0722 98.896 27.4199L100.104 28.678C99.2212 29.6099 98.176 30.2855 96.4108 30.2389Z" fill="#AAB0B5"/>
<path d="M21.052 32.7779H19.612L17.8932 31.1937V30.3782L19.6817 28.6775V25.975L22.0043 24.4606L24.6521 26.4642L21.052 32.7779ZM15.106 28.5377L15.3615 25.9983L14.5022 23.7384H19.6352L18.7758 25.9983L19.0081 28.5377H15.106ZM16.2906 31.1937L14.5718 32.8012H13.1086L9.48524 26.4875L12.1563 24.5072L14.5022 25.9983V28.7008L16.2906 30.4015V31.1937ZM13.0853 19.0556H21.0288L21.9811 23.1094H12.1563L13.0853 19.0556ZM17.0803 14L7 19.8477V31.5198L17.0803 37.3675L27.1606 31.5198V19.8477L17.0803 14Z" fill="#AAB0B5"/>
</svg>