<svg xmlns="http://www.w3.org/2000/svg" width="120" height="51" viewBox="0 0 120 51" fill="none">
<path fill-rule="evenodd" clip-rule="evenodd" d="M29.4625 21.2933H37.9251V13H21.1692V13.0846L29.4625 21.2933Z" fill="#AAB0B5"/>
<path fill-rule="evenodd" clip-rule="evenodd" d="M29.4626 21.2935H21V29.5868H37.7559V29.5022L29.4626 21.2935Z" fill="#AAB0B5"/>
<path fill-rule="evenodd" clip-rule="evenodd" d="M21.0847 29.5024H29.4627V37.8804L21.0847 29.5024Z" fill="#AAB0B5"/>
<path d="M49.4341 29.5021V24.9323H54.4271V22.8166H49.4341V19.7701H54.8502V17.5698H46.98V29.4174H49.4341V29.5021Z" fill="#AAB0B5"/>
<path d="M61.1125 20.8704C60.9433 20.7858 60.6048 20.7012 60.1816 20.7012C59.3354 20.7012 58.6584 21.1243 58.2352 21.7167V20.8704H55.8657V29.5023H58.2352V24.1708C58.4045 23.4092 59.0815 22.9861 59.8431 22.9861C60.2663 22.9861 60.6894 23.0707 61.0279 23.2399V20.8704H61.1125Z" fill="#AAB0B5"/>
<path d="M69.0673 29.5023V24.0016C69.0673 21.9706 67.7133 20.7012 65.4284 20.7012C63.482 20.7012 62.0434 21.8859 61.7895 23.4938H64.0744C64.2437 22.9861 64.6668 22.6476 65.3438 22.6476C66.2747 22.6476 66.7824 23.2399 66.7824 24.0016V24.594C66.4439 24.3401 65.5977 24.0862 64.8361 24.0862C62.9743 24.0862 61.5356 25.1863 61.5356 26.8789C61.5356 28.656 62.9743 29.6715 64.7514 29.6715C65.6823 29.6715 66.5286 29.333 66.8671 29.0791V29.5023H69.0673V29.5023ZM66.7824 27.1327C66.5286 27.5559 65.9362 27.8944 65.2592 27.8944C64.4975 27.8944 63.7359 27.5559 63.7359 26.7942C63.7359 26.0326 64.4975 25.6941 65.2592 25.6941C65.9362 25.6941 66.6132 25.948 66.7824 26.4557V27.1327Z" fill="#AAB0B5"/>
<path d="M77.53 21.8013C77.0222 21.1243 76.2606 20.7012 75.2451 20.7012C74.3142 20.7012 73.4679 21.0397 73.0448 21.6321V20.9551H70.6753V29.5869H73.0448V24.0016C73.2141 23.2399 73.8064 22.9014 74.3988 22.9014C75.2451 22.9014 75.5836 23.4938 75.5836 24.4247V29.5869H77.9531V24.0016C78.1224 23.2399 78.6301 22.9014 79.3071 22.9014C80.1534 22.9014 80.5765 23.4938 80.5765 24.4247V29.5869H82.946V23.917C82.946 21.9706 81.8459 20.7012 80.0688 20.7012C78.9686 20.7012 78.1224 21.2089 77.53 21.8013Z" fill="#AAB0B5"/>
<path d="M89.8007 26.7096C89.6314 27.4712 89.0391 27.8097 88.1928 27.8097C87.0927 27.8097 86.4157 27.0481 86.331 25.7787H92.0856V25.0171C92.0856 22.4783 90.7316 20.7012 88.1928 20.7012C85.8233 20.7012 84.0461 22.6476 84.0461 25.1863C84.0461 27.8097 85.7387 29.6715 88.1928 29.6715C90.3931 29.6715 91.6625 28.4867 92.001 26.625H89.8007V26.7096ZM88.1928 22.6476C89.2083 22.6476 89.7161 23.3246 89.7161 24.2555H86.4157C86.6695 23.2399 87.2619 22.6476 88.1928 22.6476Z" fill="#AAB0B5"/>
<path d="M98.4326 20.8704C98.2633 20.7858 97.9248 20.7012 97.5017 20.7012C96.6554 20.7012 95.9784 21.1243 95.5553 21.7167V20.8704H93.1858V29.5023H95.5553V24.1708C95.7246 23.4092 96.4016 22.9861 97.1632 22.9861C97.5863 22.9861 98.0095 23.0707 98.348 23.2399V20.8704H98.4326Z" fill="#AAB0B5"/>
</svg>