<svg xmlns="http://www.w3.org/2000/svg" width="120" height="51" viewBox="0 0 120 51" fill="none">
<g clip-path="url(#clip0_15692_4214)">
<path d="M56.4646 21.708V22.6109C55.7524 21.9165 54.815 21.4995 53.7553 21.4995C51.3762 21.4995 49.552 23.4622 49.552 25.8935C49.552 28.3248 51.375 30.2531 53.7553 30.2531C54.815 30.2531 55.7524 29.8361 56.4646 29.1417V30.0451H58.1664V21.7086H56.4646V21.708ZM56.0763 27.2243C55.2635 28.519 53.7271 28.9079 52.5066 28.141C51.286 27.3748 50.9592 25.8366 51.772 24.5426C52.5847 23.2479 54.1298 22.8441 55.3509 23.6109C56.5715 24.3771 56.8885 25.9303 56.0763 27.2243Z" fill="#AAB0B5"/>
<path d="M92.9179 21.708V22.6109C92.2056 21.9165 91.2684 21.4995 90.2086 21.4995C87.8295 21.4995 86.0052 23.4622 86.0052 25.8935C86.0052 28.3248 87.8284 30.2531 90.2086 30.2531C91.2684 30.2531 92.2056 29.8361 92.9179 29.1417V30.0451H94.6198V21.7086H92.9179V21.708ZM92.5302 27.2243C91.7175 28.519 90.1811 28.9079 88.9605 28.141C87.7399 27.3748 87.4131 25.8366 88.2259 24.5426C89.0385 23.2479 90.5842 22.8441 91.8048 23.6109C93.0254 24.3771 93.3424 25.9303 92.5302 27.2243Z" fill="#AAB0B5"/>
<path d="M64.9048 25.0735C64.9048 24.2923 64.7313 23.9098 64.4705 23.6318C64.2098 23.3538 63.8107 23.1976 63.3764 23.1976C62.9422 23.1976 62.5429 23.3538 62.2822 23.6318C62.022 23.9098 61.8479 24.2918 61.8479 25.0735V30.0402H60.0767V21.7036H61.7435V22.2941C62.2122 21.8076 62.8893 21.4951 63.6711 21.4951C64.6263 21.4951 65.4775 21.9466 66.0157 22.641C66.5889 21.9466 67.4746 21.4951 68.4992 21.4951C69.524 21.4951 70.3229 21.9466 70.8784 22.676C71.2603 23.197 71.5033 23.857 71.5033 24.9167V30.0402H69.7319V25.0735C69.7319 24.2923 69.5584 23.9098 69.2977 23.6318C69.0369 23.3538 68.6377 23.1976 68.2034 23.1976C67.7693 23.1976 67.3701 23.3538 67.1093 23.6318C66.849 23.9098 66.675 24.2918 66.675 25.0735V30.0402H64.9037V25.0735H64.9048Z" fill="#AAB0B5"/>
<path d="M78.1499 25.0735C78.1499 24.2923 77.9766 23.9098 77.7158 23.6318C77.455 23.3538 77.0558 23.1976 76.6216 23.1976C76.1873 23.1976 75.7882 23.3538 75.5273 23.6318C75.2672 23.9098 75.0932 24.2918 75.0932 25.0735V30.0402H73.3218V21.7036H74.9886V22.2941C75.4573 21.8076 76.1345 21.4951 76.9162 21.4951C77.8714 21.4951 78.7227 21.9466 79.2608 22.641C79.8341 21.9466 80.7197 21.4951 81.7445 21.4951C82.7691 21.4951 83.5681 21.9466 84.1235 22.676C84.5055 23.197 84.7484 23.857 84.7484 24.9167V30.0402H82.9771V25.0735C82.9771 24.2923 82.8036 23.9098 82.5428 23.6318C82.282 23.3538 81.8828 23.1976 81.4487 23.1976C81.0144 23.1976 80.6152 23.3538 80.3544 23.6318C80.0943 23.9098 79.9202 24.2918 79.9202 25.0735V30.0402H78.1488V25.0735H78.1499Z" fill="#AAB0B5"/>
<path d="M103.031 16.5312H104.802V30.043H103.031V16.5312Z" fill="#AAB0B5"/>
<path d="M39.9126 21.708V22.6109C39.2004 21.9165 38.263 21.4995 37.2032 21.4995C34.8242 21.4995 33 23.4271 33 25.859C33 28.2909 34.8237 30.2531 37.2032 30.2531C38.2451 30.2531 39.1831 29.8532 39.8775 29.1761V30.0445C39.8775 31.4695 38.9902 32.5442 37.6667 32.7195C36.6329 32.856 35.4968 32.5603 34.7725 31.9653C34.6852 31.8929 34.6048 31.8165 34.5308 31.7367L33.6008 33.2507C33.6238 33.2702 33.6461 33.2898 33.6685 33.3087C34.587 34.0635 35.8748 34.4908 37.1584 34.4908C37.4048 34.4908 37.6507 34.4753 37.8942 34.4425C40.0861 34.153 41.6133 32.3437 41.6133 30.0445V21.708H39.9114H39.9126ZM37.3773 28.5506C35.9356 28.5506 34.842 27.3868 34.842 25.859C34.842 24.3312 35.9362 23.2014 37.3773 23.2014C38.8185 23.2014 39.9126 24.3473 39.9126 25.8763C39.9126 27.4052 38.8185 28.5506 37.3773 28.5506Z" fill="#AAB0B5"/>
<path d="M112.785 21.6777L110.16 27.6323L107.74 21.6777H105.963L109.236 29.7294L107.171 34.4134H108.97L110.099 31.8523L111.023 29.7552L114.584 21.6777H112.785Z" fill="#AAB0B5"/>
<path d="M48.9419 21.9101C48.3273 21.639 47.6512 21.5265 46.9889 21.662C46.402 21.7826 45.858 22.0779 45.4352 22.5012C45.3479 22.5885 45.2618 22.6746 45.1917 22.7792V21.7022H43.5249V30.0388H45.2962V25.8877C45.2962 24.9153 45.5397 24.3593 45.9384 23.9601C46.3554 23.5431 46.928 23.3001 47.5886 23.3001C47.7937 23.3001 48.3221 23.3576 48.8952 23.7286L49.7374 22.3576C49.487 22.1853 49.2198 22.0325 48.9419 21.9101Z" fill="#AAB0B5"/>
<path d="M99.9953 21.6486C99.4083 21.7692 98.8644 22.0644 98.4417 22.4878C98.3543 22.5751 98.2676 22.6612 98.1976 22.7652V21.6882H96.5306V30.0247H98.3026V25.8737C98.3026 24.9013 98.5456 24.3453 98.9448 23.9461C99.3618 23.5291 99.9339 23.2861 100.595 23.2861C100.8 23.2861 101.287 23.2907 101.897 23.5274V21.8783C101.296 21.6233 100.64 21.5153 99.9953 21.6475V21.6486Z" fill="#AAB0B5"/>
<path d="M6 25.481C6 19.4063 10.9229 14.4834 16.9976 14.4834C23.0722 14.4834 27.9941 19.4063 27.9941 25.481C27.9941 30.7955 24.2265 35.2285 19.2153 36.2547C18.4995 36.4016 17.7577 36.4776 17.0006 36.4776H6V25.4805V25.481Z" fill="#AAB0B5"/>
<path d="M24.6073 24.4395H19.6517L18.4847 26.461H22.571C21.9307 29.9768 18.0208 32.3704 14.1134 30.3459C13.2732 29.911 12.589 29.2386 12.147 28.3984C9.89914 24.1188 12.9699 19.8133 17.022 19.8133C18.6928 19.8133 20.1972 20.5449 21.2307 21.7048L22.2779 19.8908C20.7861 18.4786 18.7268 17.6562 16.4816 17.8142C12.6589 18.0778 9.55959 21.2464 9.37351 25.0727C9.16141 29.466 12.6731 33.1056 17.0195 33.1056C21.3658 33.1056 24.6761 29.6699 24.6761 25.4485C24.6761 25.1054 24.6501 24.7689 24.6068 24.4395H24.6073Z" fill="#D6D7DB"/>
</g>
<defs>
<clipPath id="clip0_15692_4214">
<rect width="109" height="23" fill="white" transform="translate(6 14)"/>
</clipPath>
</defs>
</svg>