<svg xmlns="http://www.w3.org/2000/svg" width="120" height="51" viewBox="0 0 120 51" fill="none">
<g clip-path="url(#clip0_15692_4139)">
<path d="M22.7504 21.2364C22.7466 18.4665 20.5893 16.1963 18.0581 15.3771C14.915 14.3599 10.7694 14.5074 7.76808 15.9235C4.13037 17.6401 2.98763 21.4004 2.94505 25.1506C2.9101 28.2339 3.21783 36.3548 7.79841 36.4126C11.2019 36.4558 11.7087 32.0702 13.2835 29.9581C14.404 28.4554 15.8466 28.031 17.6225 27.5915C20.6746 26.836 22.7548 24.4272 22.7504 21.2364Z" fill="#AAB0B5"/>
</g>
<path d="M37.6031 21.364C37.6031 20.8634 37.9736 20.523 38.5543 20.523H41.3325C43.8505 20.523 45.5625 21.9096 45.5625 23.947C45.5625 25.9494 43.8655 27.4361 41.3325 27.4361H40.9471C39.9759 27.4361 39.4753 27.9367 39.4753 28.7427V31.0253C39.4753 31.6711 39.1049 32.0766 38.5392 32.0766C37.9736 32.0766 37.6031 31.6711 37.6031 31.0253V21.364ZM39.4753 24.2574C39.4753 25.2736 39.991 25.7591 40.9771 25.7591H41.2174C42.604 25.7591 43.6252 25.1935 43.6252 23.952C43.6252 22.7106 42.609 22.1449 41.2174 22.1449H40.9821C39.996 22.1449 39.4804 22.6305 39.4804 23.6467V24.2574H39.4753ZM45.5675 31.1855C45.5675 31.7162 45.9379 32.0716 46.5036 32.0716C46.874 32.0716 47.2144 31.8313 47.4097 31.3307L47.7501 30.4246C48.0254 29.6988 48.511 29.3584 49.0416 29.3584H52.1102C52.6408 29.3584 53.1264 29.6988 53.4017 30.4246L53.7421 31.3307C53.9373 31.8313 54.2727 32.0716 54.6482 32.0716C55.2138 32.0716 55.5843 31.7162 55.5843 31.1855C55.5843 31.0404 55.5542 30.8601 55.4892 30.6849L51.8249 21.1537C51.5996 20.5731 51.084 20.2827 50.5834 20.2827C50.0828 20.2827 49.5672 20.5731 49.3419 21.1537L45.6776 30.6849C45.5975 30.8652 45.5675 31.0404 45.5675 31.1855ZM49.1367 26.8554C49.1367 26.6802 49.1868 26.515 49.2669 26.2748L49.9627 24.3525C50.0928 23.9821 50.3181 23.8019 50.5784 23.8019C50.8387 23.8019 51.064 23.9771 51.1941 24.3525L51.8899 26.2748C51.97 26.515 52.0201 26.6802 52.0201 26.8554C52.0201 27.341 51.7448 27.6814 51.0189 27.6814H50.1479C49.412 27.6814 49.1367 27.341 49.1367 26.8554ZM54.9686 21.399C54.9686 20.8834 55.339 20.528 55.9397 20.528H63.3684C63.9641 20.528 64.3396 20.8834 64.3396 21.399C64.3396 21.9146 63.9691 22.2701 63.3684 22.2701H62.127C61.1408 22.2701 60.6102 22.7706 60.6102 23.917V31.0103C60.6102 31.6711 60.2397 32.0766 59.6591 32.0766C59.0784 32.0766 58.7079 31.6711 58.7079 31.0103V23.917C58.7079 22.7706 58.1773 22.2701 57.1912 22.2701H55.9497C55.339 22.2701 54.9686 21.9146 54.9686 21.399ZM66.0816 31.0253C66.0816 31.6711 66.452 32.0766 67.0177 32.0766C67.5834 32.0766 67.9538 31.6711 67.9538 31.0253V28.4573C67.9538 27.7315 68.3743 27.4211 68.8899 27.4211H69.0201C69.3605 27.4211 69.7009 27.6313 69.9061 27.9367L72.359 31.5409C72.5843 31.8813 72.8746 32.0716 73.245 32.0716C73.7306 32.0716 74.1161 31.6661 74.1161 31.1855C74.1161 30.9903 74.051 30.78 73.9058 30.5698L72.2739 28.2771C72.0787 28.0018 71.9986 27.7765 71.9986 27.5813C71.9986 27.1758 72.354 26.8855 72.7745 26.5801C73.5354 26.0145 74.3563 25.2736 74.3563 23.8519C74.3563 21.8646 72.8045 20.523 70.2515 20.523H67.0027C66.422 20.523 66.0666 20.8634 66.0666 21.364V31.0253H66.0816ZM67.9538 24.1122V23.6266C67.9538 22.5754 68.5045 22.1399 69.3404 22.1399H70.1464C71.533 22.1399 72.4241 22.6555 72.4241 23.8519C72.4241 25.0483 71.488 25.594 70.0963 25.594H69.3354C68.5045 25.599 67.9538 25.1634 67.9538 24.1122ZM76.7592 30.9903V21.364C76.7592 20.8634 77.1146 20.523 77.6953 20.523H83.8024C84.3831 20.523 84.7385 20.8634 84.7385 21.364C84.7385 21.8646 84.3831 22.205 83.8024 22.205H79.9429C79.182 22.205 78.6364 22.6555 78.6364 23.5115V23.8669C78.6364 24.7229 79.187 25.1735 79.9429 25.1735H82.9314C83.5121 25.1735 83.8675 25.5139 83.8675 26.0144C83.8675 26.515 83.5121 26.8554 82.9314 26.8554H80.058C79.2971 26.8554 78.6364 27.326 78.6364 28.2771V28.7276C78.6364 29.6788 79.2971 30.1493 80.058 30.1493H83.8074C84.3881 30.1493 84.7435 30.4897 84.7435 30.9903C84.7435 31.4909 84.3881 31.8313 83.8074 31.8313H77.7003C77.1146 31.8313 76.7592 31.4909 76.7592 30.9903ZM85.8498 26.1796C85.8498 22.6905 88.4679 20.2827 91.5365 20.2827C94.6051 20.2827 97.2232 22.6905 97.2232 26.1796C97.2232 29.6687 94.6051 32.0766 91.5365 32.0766C88.4679 32.0766 85.8498 29.6687 85.8498 26.1796ZM87.9824 26.1796C87.9824 28.6325 89.4341 30.1994 91.5365 30.1994C93.634 30.1994 95.0907 28.6325 95.0907 26.1796C95.0907 23.7067 93.639 22.1599 91.5365 22.1599C89.4391 22.1549 87.9824 23.7067 87.9824 26.1796ZM99.4658 31.0253C99.4658 31.6711 99.8363 32.0766 100.402 32.0766C100.968 32.0766 101.338 31.6711 101.338 31.0253V26.0845C101.338 25.4888 101.693 25.1985 102.064 25.1985C102.354 25.1985 102.595 25.3587 102.775 25.649L105.873 30.8351C106.294 31.546 106.679 32.0766 107.47 32.0766C108.231 32.0766 108.777 31.5259 108.777 30.6399V21.334C108.777 20.6882 108.406 20.2827 107.841 20.2827C107.275 20.2827 106.905 20.6882 106.905 21.334V26.2748C106.905 26.8705 106.549 27.1608 106.179 27.1608C105.888 27.1608 105.643 27.0006 105.468 26.7103L102.369 21.5242C101.949 20.8133 101.563 20.2827 100.772 20.2827C100.011 20.2827 99.4658 20.8334 99.4658 21.7194V31.0253Z" fill="#AAB0B5"/>
<defs>
<clipPath id="clip0_15692_4139">
<rect width="21.6937" height="21.6937" fill="white" transform="translate(2 14.7192)"/>
</clipPath>
</defs>
</svg>