<svg xmlns="http://www.w3.org/2000/svg" width="120" height="51" viewBox="0 0 120 51" fill="none">
<path fill-rule="evenodd" clip-rule="evenodd" d="M11.9968 14.6494L18.2298 20.3922V20.3909V14.6627H19.4431V20.4179L25.7041 14.6494V21.197H28.2746V30.6414H25.712V36.4717L19.4431 30.9641V36.535H18.2298V31.0549L12.0039 36.5386V30.6414H9.43329V21.197H11.9968V14.6494ZM17.3151 22.3955H10.6466V29.4429H12.0024V27.2199L17.3151 22.3955ZM13.2171 27.7517V33.8642L18.2298 29.4492V23.1987L13.2171 27.7517ZM19.4781 29.3908V23.1928L24.4922 27.7461V30.6414H24.4986V33.8018L19.4781 29.3908ZM25.712 29.4429H27.0613V22.3955H20.4424L25.712 27.1699V29.4429ZM24.4907 21.197V17.4062L20.3763 21.197H24.4907ZM17.3245 21.197H13.2101V17.4062L17.3245 21.197Z" fill="#AAB0B5"/>
<mask id="mask0_16755_41626" style="mask-type:luminance" maskUnits="userSpaceOnUse" x="33" y="17" width="78" height="17">
<path d="M110.567 17.5591H33.4698V33.6296H110.567V17.5591Z" fill="white"/>
</mask>
<g mask="url(#mask0_16755_41626)">
<path d="M58.2517 21.0536H59.0221V22.6411H58.0249C57.2434 22.6411 56.6605 22.8291 56.2742 23.2062C55.8902 23.5821 55.6971 24.2004 55.6971 25.0599V30.2653H54.1227V21.0898H55.6971V22.554C55.6971 22.6366 55.7386 22.6774 55.8195 22.6774C55.8655 22.6774 55.9003 22.666 55.925 22.6423C55.9497 22.6185 55.971 22.572 55.9957 22.5007C56.2989 21.5371 57.0525 21.0547 58.2528 21.0547H58.2517V21.0536ZM68.7242 23.0205C69.1374 23.7554 69.3452 24.6409 69.3452 25.6759C69.3452 26.7108 69.1385 27.5964 68.7242 28.3313C68.3098 29.0662 67.773 29.6165 67.1138 29.9811C66.4547 30.3457 65.7461 30.5281 64.9882 30.5281C63.4947 30.5281 62.4447 29.9279 61.8384 28.7276C61.7923 28.6336 61.7328 28.586 61.6632 28.586C61.5936 28.586 61.5576 28.6211 61.5576 28.6925V33.616H59.9832V21.0886H61.5576V22.6593C61.5576 22.7294 61.5924 22.7657 61.6632 22.7657C61.7339 22.7657 61.7912 22.7192 61.8384 22.6241C62.4447 21.4238 63.4947 20.8237 64.9882 20.8237C65.7461 20.8237 66.4547 21.006 67.1138 21.3706C67.773 21.7353 68.3087 22.2855 68.7242 23.0205ZM67.7719 25.6759C67.7719 24.5933 67.4833 23.7497 66.9061 23.1439C66.329 22.5381 65.5687 22.2357 64.6221 22.2357C63.6755 22.2357 62.9152 22.5392 62.3381 23.1439C61.7597 23.7497 61.5487 24.5944 61.5487 25.6759C61.5487 26.7573 61.7608 27.6021 62.3381 28.2078C62.9152 28.8148 63.6766 29.116 64.6221 29.116C65.5676 29.116 66.329 28.8125 66.9061 28.2078C67.4833 27.6032 67.7719 26.7573 67.7719 25.6759ZM42.2095 23.0341C42.6228 23.769 42.8305 24.6545 42.8305 25.6895C42.8305 26.7245 42.6239 27.6099 42.2095 28.3448C41.7952 29.0798 41.2585 29.6301 40.5993 29.9947C39.9401 30.3593 39.2316 30.5416 38.4735 30.5416C36.9801 30.5416 35.9301 29.9415 35.3237 28.7412C35.2777 28.6472 35.2182 28.5997 35.1485 28.5997C35.0789 28.5997 35.043 28.6347 35.043 28.7061V33.6296H33.4698V21.1023H35.0441V22.6728C35.0441 22.7431 35.0789 22.7793 35.1497 22.7793C35.2204 22.7793 35.2777 22.7329 35.3249 22.6377C35.9313 21.4374 36.9812 20.8373 38.4747 20.8373C39.2327 20.8373 39.9412 21.0196 40.6004 21.3842C41.2596 21.7488 41.7952 22.2992 42.2107 23.0341H42.2095ZM41.2562 25.6895C41.2562 24.6069 40.9676 23.7633 40.3904 23.1575C39.8132 22.5528 39.0519 22.2493 38.1063 22.2493C37.1609 22.2493 36.3995 22.5528 35.8223 23.1575C35.2452 23.7645 35.0329 24.6081 35.0329 25.6895C35.0329 26.7709 35.2452 27.6156 35.8223 28.2215C36.3995 28.8284 37.1597 29.1296 38.1063 29.1296C39.053 29.1296 39.8132 28.8261 40.3904 28.2215C40.9676 27.6167 41.2562 26.7709 41.2562 25.6895ZM51.3401 27.3507H53.0021C52.7808 28.2101 52.3283 28.9541 51.6467 29.5825C50.9639 30.2121 49.987 30.5258 48.7147 30.5258C47.7579 30.5258 46.9158 30.3288 46.187 29.9347C45.4582 29.5406 44.8956 28.9801 44.498 28.2497C44.1006 27.5205 43.903 26.6621 43.903 25.6736C43.903 24.685 44.0961 23.8267 44.4801 23.0975C44.8641 22.3683 45.4043 21.8065 46.0982 21.4125C46.7923 21.0185 47.6052 20.8214 48.5384 20.8214C49.4715 20.8214 50.2452 21.0162 50.892 21.4035C51.54 21.7919 52.0228 22.3071 52.344 22.9469C52.6651 23.5889 52.8246 24.291 52.8246 25.0554V26.1141H45.5638C45.621 27.0313 45.9287 27.7617 46.4823 28.3018C47.0359 28.8431 47.7804 29.1137 48.7136 29.1137C49.4715 29.1137 50.0532 28.9586 50.4552 28.6461C50.8572 28.3335 51.1515 27.9021 51.339 27.3484L51.3401 27.3507ZM45.5312 24.7926H51.0257C51.0257 23.9932 50.8213 23.3659 50.4126 22.9129C50.0038 22.4611 49.3626 22.2335 48.4878 22.2335C47.6715 22.2335 47.0033 22.4543 46.4846 22.896C45.9657 23.3364 45.648 23.9694 45.5312 24.7926ZM70.6151 30.2631H72.1906V17.5591H70.6151V30.2642V30.2631ZM92.7569 20.0865H94.5967V18.1004H92.7569V20.0865ZM99.5494 28.8964C99.2633 28.9258 99.0902 28.9405 99.0334 28.9405C98.9523 28.9405 98.8858 28.9167 98.8401 28.8691C98.7937 28.8227 98.7695 28.7582 98.7695 28.6743C98.7695 28.6166 98.7847 28.4422 98.8145 28.1535C98.8422 27.8659 98.8581 27.4208 98.8581 26.8218V22.4316H101.104L100.661 21.0875H98.8588V18.6167H97.285V21.0864H95.572V22.4305H97.285V27.2612C97.285 28.2736 97.5309 29.0265 98.02 29.5203C98.5097 30.0139 99.2564 30.2619 100.261 30.2619H101.486V28.851H100.872C100.277 28.851 99.8369 28.8657 99.5508 28.8952L99.5494 28.8964ZM109.066 21.0875L106.459 28.7865C106.424 28.8816 106.369 29.005 106.191 29.005C106.012 29.005 105.956 28.8816 105.921 28.7865L103.314 21.0875H101.708L104.727 30.2631H105.795C105.865 30.2631 105.918 30.2699 105.954 30.2812C105.989 30.2925 106.018 30.322 106.041 30.3695C106.087 30.4397 106.082 30.5461 106.023 30.6866L105.534 32.0273C105.463 32.204 105.329 32.2923 105.132 32.2923C105.061 32.2923 104.898 32.2775 104.642 32.2481C104.385 32.2187 104.054 32.204 103.645 32.204H102.367V33.6149H104.047C105.027 33.6149 105.617 33.4473 106.124 33.1121C106.632 32.777 107.025 32.1858 107.306 31.3389L110.567 21.4397V21.0875H109.068H109.066ZM87.428 24.5107L84.9606 21.0875H83.2282V21.4397L86.1846 25.4097L82.5798 29.9098V30.2619H84.3475L87.2174 26.5738L89.8946 30.2619H91.5924V29.9098L88.4594 25.6748L91.8557 21.4578V21.0875H90.0879L87.4287 24.5107H87.428ZM92.9245 30.2631H94.4997V21.0886H92.9245V30.2642V30.2631ZM82.5583 27.3507C82.336 28.2101 81.885 28.9541 81.2034 29.5825C80.5204 30.2121 79.5437 30.5258 78.2712 30.5258C77.3146 30.5258 76.4723 30.3288 75.7436 29.9347C75.0135 29.5406 74.4524 28.9801 74.0547 28.2497C73.6583 27.5205 73.4607 26.6621 73.4607 25.6736C73.4607 24.685 73.6538 23.8267 74.0379 23.0975C74.4233 22.3683 74.9622 21.8065 75.6563 21.4125C76.3497 21.0185 77.1629 20.8214 78.0974 20.8214C79.0318 20.8214 79.8042 21.0162 80.4518 21.4035C81.0988 21.7919 81.583 22.3071 81.9037 22.9469C82.2251 23.5889 82.3845 24.291 82.3845 25.0554V26.1141H75.1229C75.1811 27.0313 75.4873 27.7617 76.0414 28.3018C76.5949 28.8431 77.3396 29.1137 78.2726 29.1137C79.0304 29.1137 79.6123 28.9586 80.0141 28.6461C80.4158 28.3335 80.7102 27.9021 80.8965 27.3484H82.5597L82.5583 27.3507ZM75.1271 24.7926H80.6215C80.6215 23.9932 80.4172 23.3659 80.0099 22.9129C79.6005 22.4611 78.9598 22.2335 78.0849 22.2335C77.2682 22.2335 76.6004 22.4543 76.0816 22.896C75.5628 23.3364 75.2442 23.9694 75.1285 24.7926H75.1271Z" fill="#AAB0B5"/>
</g>
</svg>