<svg xmlns="http://www.w3.org/2000/svg" width="120" height="51" viewBox="0 0 120 51" fill="none">
<g clip-path="url(#clip0_15692_4138)">
<path d="M9.26733 17.8143L21.3989 12.9419L33.5568 17.8143L21.3858 22.6997L9.26733 17.8143Z" fill="#AAB0B5"/>
<path d="M10.3128 17.8208V32.9179L9.26733 32.497V17.8208H10.3128Z" fill="#AAB0B5"/>
<path d="M21.9322 22.0435V37.2063L21.4588 37.397L20.8933 37.1668V22.0435H21.9322Z" fill="#AAB0B5"/>
<path d="M22.8586 36.8292L21.9315 37.204L21.4581 37.3947L20.8926 37.1645L20.0575 36.8292L10.3128 32.9168L9.26733 32.496V31.3716L10.3128 31.7924L20.8926 36.0401L21.4581 36.2702L21.9315 36.461L22.8586 36.8292Z" fill="#AAB0B5"/>
<path d="M9.26733 17.813V18.944L21.9315 24.0267V22.9023L9.26733 17.813Z" fill="#AAB0B5"/>
<path d="M39.3302 15.4927L21.3269 22.7256L21.7148 23.6922L39.3302 16.6236V15.4927Z" fill="#AAB0B5"/>
<path d="M39.3302 20.0317L21.3269 27.2581L21.7148 28.2313L39.3302 21.1562V20.0317Z" fill="#AAB0B5"/>
<path d="M39.3302 24.5591L21.3269 31.792L21.7148 32.7585L39.3302 25.6901V24.5591Z" fill="#AAB0B5"/>
<path d="M39.3298 29.0981V30.2226L22.8584 36.8308L21.9313 37.2056L21.4579 37.3963L20.8924 37.1662L20.0574 36.8308L20.8924 36.4955L21.4579 36.2719L21.9313 36.0812L39.3298 29.0981Z" fill="#AAB0B5"/>
<path d="M47.3461 22.4436H44.6765V21.0825H51.9094V22.4436H49.2464V29.2426H47.3461V22.4436Z" fill="#AAB0B5"/>
<path d="M58.2866 29.2557L56.2811 26.0929H54.9661V29.2491H53.1052V21.0825H56.3929C58.3656 21.0825 59.9107 21.6743 59.9107 23.522C59.9213 24.0529 59.7506 24.5716 59.4266 24.9924C59.1026 25.4132 58.6448 25.711 58.1288 25.8365L60.4039 29.2557H58.2866ZM54.999 24.8107H56.2154C57.4121 24.8107 58.0697 24.3768 58.0697 23.4957C58.0697 22.6146 57.4121 22.3318 56.2154 22.3318H54.9792L54.999 24.8107Z" fill="#AAB0B5"/>
<path d="M61.2126 25.0726C61.2126 22.4425 62.9222 20.9302 65.4012 20.9302C67.8801 20.9302 69.5897 22.4622 69.5897 25.0726C69.5897 25.6227 69.4813 26.1673 69.2708 26.6755C69.0603 27.1837 68.7518 27.6454 68.3629 28.0344C67.9739 28.4233 67.5122 28.7318 67.004 28.9423C66.4959 29.1528 65.9512 29.2611 65.4012 29.2611C64.8511 29.2611 64.3064 29.1528 63.7983 28.9423C63.2901 28.7318 62.8284 28.4233 62.4394 28.0344C62.0505 27.6454 61.742 27.1837 61.5315 26.6755C61.321 26.1673 61.2126 25.6227 61.2126 25.0726ZM67.6828 25.0726C67.6828 23.3433 66.7952 22.311 65.4012 22.311C64.0071 22.311 63.1261 23.3433 63.1261 25.0726C63.1261 26.8019 64.0138 27.8869 65.4012 27.8869C66.7885 27.8869 67.6894 26.7888 67.6894 25.0726H67.6828Z" fill="#AAB0B5"/>
<path d="M79.0984 27.9222L80.7351 27.2646C81.3232 27.6884 82.0293 27.9182 82.7542 27.9222C83.7141 27.9222 84.2206 27.5736 84.2206 27.0147C84.2206 26.4558 83.6618 26.2454 82.8393 25.9495L81.5967 25.4958C80.6695 25.1604 79.7361 24.5226 79.7361 23.372C79.7361 22.0569 81.0512 21.0903 82.9188 21.0903C84.2011 21.1035 85.4304 21.6042 86.3576 22.4909L84.8646 23.0958C84.2995 22.662 83.6046 22.4304 82.8923 22.4383C82.0837 22.4383 81.5772 22.7473 81.5772 23.2668C81.5772 23.7862 82.2344 24.0361 83.0172 24.3057L84.2269 24.7791C85.3446 25.1736 86.0743 25.7851 86.0743 26.9227C86.0743 28.2378 84.8255 29.3161 82.7011 29.3161C81.3804 29.2573 80.1149 28.7677 79.0984 27.9222Z" fill="#AAB0B5"/>
<path d="M76.1591 21.0908V24.3389V26.3116L72.5427 21.0513H70.7673V29.2442H72.5427V23.9839L76.1591 29.2442H77.9279V21.0842L76.1591 21.0908Z" fill="#AAB0B5"/>
<path d="M109.351 21.0908V24.3389V26.3116L105.735 21.0513H103.953V29.2442H105.721V23.9839L109.337 29.2442H111.113V21.0842L109.351 21.0908Z" fill="#AAB0B5"/>
<path d="M91.5977 27.9203C90.2303 27.9203 89.3554 26.8419 89.3554 25.1521C89.3554 23.4622 90.2303 22.4365 91.5977 22.4365C91.9514 22.4235 92.3023 22.5028 92.6156 22.6665C92.9296 22.8302 93.1947 23.0727 93.3865 23.3702L95.0365 22.7126C94.6479 22.1728 94.1281 21.7403 93.5268 21.4551C92.9261 21.1701 92.2619 21.0416 91.5977 21.082C89.1587 21.082 87.4752 22.5811 87.4752 25.1586C87.4361 25.7107 87.5164 26.2646 87.7096 26.7831C87.9029 27.3016 88.205 27.7726 88.5957 28.1646C88.9863 28.5565 89.4566 28.8601 89.9742 29.055C90.4919 29.2499 91.0459 29.3316 91.5977 29.2946C92.2096 29.3226 92.82 29.2105 93.3816 28.9666C93.9433 28.7227 94.4421 28.3536 94.8398 27.8875L93.1891 27.2299C92.9909 27.4546 92.7454 27.6329 92.4705 27.7522C92.1956 27.8715 91.8977 27.9289 91.5977 27.9203Z" fill="#AAB0B5"/>
<path d="M102.75 29.1254L100.185 21.1692V21.0903H98.1468V21.1692L95.6024 29.1254L95.5564 29.2767H97.378V29.1912L97.9103 27.2186H100.324L100.863 29.1912V29.2767H102.77L102.75 29.1254ZM99.9224 25.7719H98.3247L98.5222 25.0421C98.7322 24.2925 98.9429 23.5232 99.1201 22.7736L99.298 23.4706C99.4361 23.9966 99.5743 24.5358 99.7249 25.0421L99.9224 25.7719Z" fill="#AAB0B5"/>
</g>
<defs>
<clipPath id="clip0_15692_4138">
<rect width="101.859" height="25.116" fill="white" transform="translate(9 12.9419)"/>
</clipPath>
</defs>
</svg>