<svg xmlns="http://www.w3.org/2000/svg" width="146" height="51" viewBox="0 0 146 51" fill="none">
<path d="M33.1968 22.2483H39.6271V33.6689H19.2104V22.2483H25.6407V27.9574H33.1968V22.2483ZM54.9191 28.105C54.9191 30.0377 53.6461 31.181 51.906 31.181C50.2056 31.181 48.9139 30.0377 48.9139 28.105V18.9099H46.0597V28.0769C46.0597 31.6963 48.629 33.9828 51.913 33.9828C55.1971 33.9828 57.7874 31.6963 57.7874 28.0769V18.9099H54.9261L54.9191 28.105ZM65.1263 23.1549C64.0285 23.1549 62.8045 23.6234 62.1832 24.694V23.4266H59.5088V33.6502H62.2673V27.77C62.2673 26.5986 62.968 25.6616 64.1733 25.6616C65.5 25.6616 66.0606 26.5565 66.0606 27.6997V33.6502H68.8167V27.2054C68.8237 24.9588 67.6629 23.1502 65.1333 23.1502L65.1263 23.1549ZM75.2423 27.4584L73.7288 27.1468C73.1518 27.0297 72.7945 26.7322 72.7945 26.2332C72.7945 25.6499 73.3153 25.2141 74.0394 25.2141C75.0578 25.2141 75.4619 25.7412 75.56 26.3573H77.9377C77.9191 24.9517 76.8096 23.1151 74.0815 23.1151C71.8835 23.1151 70.2672 24.6308 70.2672 26.4604C70.2672 27.8965 71.1571 29.0819 73.1261 29.5059L74.5393 29.8175C75.3264 29.9838 75.6371 30.3587 75.6371 30.8155C75.6371 31.3567 75.1372 31.8346 74.2356 31.8346C73.1355 31.8346 72.5375 31.2067 72.3974 30.4781H69.9449C70.0827 32.0079 71.1875 33.9547 74.2566 33.9547C76.931 33.9547 78.2788 32.2492 78.2788 30.5859C78.2764 29.096 77.2604 27.8707 75.2493 27.4537L75.2423 27.4584ZM90.0018 28.5197C90.0018 31.6167 88.0725 33.9079 85.1925 33.9079C83.7911 33.9079 82.7447 33.3456 82.2472 32.6592V37.6093H79.491V23.422H82.1654V24.6893C82.6326 23.8999 83.7607 23.1924 85.2953 23.1924C88.2874 23.1924 90.0088 25.4788 90.0088 28.515L90.0018 28.5197ZM87.2853 28.5407C87.2853 26.7322 86.1665 25.6709 84.7557 25.6709C83.345 25.6709 82.2075 26.7322 82.2075 28.5407C82.2075 30.3493 83.3473 31.4293 84.7557 31.4293C86.1642 31.4293 87.304 30.3657 87.304 28.5361L87.2853 28.5407ZM103.168 23.4266H105.843V33.6502H103.087V32.4062C102.619 33.2261 101.552 33.9008 100.141 33.9008C97.2613 33.9008 95.3319 31.612 95.3319 28.5126C95.3319 25.4671 97.0534 23.19 100.038 23.19C101.573 23.19 102.682 23.9045 103.168 24.687V23.4266ZM103.126 28.5407C103.126 26.7322 101.986 25.6709 100.578 25.6709C99.1695 25.6709 98.0484 26.7275 98.0484 28.5361C98.0484 30.3446 99.1672 31.4246 100.578 31.4246C101.989 31.4246 103.129 30.347 103.129 28.5361L103.126 28.5407ZM91.2935 33.6502H94.0496V18.9099H91.2935V33.6502ZM122.207 23.1525C121.233 23.1525 120.105 23.4829 119.448 24.2723V18.9099H116.692V33.6478H119.448V27.6411C119.511 26.5167 120.196 25.6452 121.357 25.6452C122.683 25.6452 123.244 26.5424 123.242 27.6857V33.6525H126V27.2054C125.998 24.9588 124.797 23.1525 122.207 23.1525V23.1525ZM112.397 27.4537L110.895 27.1421C110.318 27.025 109.961 26.7275 109.961 26.2285C109.961 25.6452 110.479 25.2094 111.206 25.2094C112.222 25.2094 112.626 25.7365 112.724 26.3527H115.099C115.081 24.947 113.971 23.1104 111.243 23.1104C109.045 23.1104 107.429 24.6261 107.429 26.4557C107.429 27.8918 108.321 29.0772 110.29 29.5012L111.691 29.8128C112.479 29.9792 112.789 30.354 112.789 30.8108C112.789 31.352 112.289 31.8299 111.388 31.8299C110.288 31.8299 109.69 31.202 109.55 30.4735H107.099C107.235 32.0032 108.34 33.95 111.409 33.95C114.083 33.95 115.431 32.2445 115.431 30.5812C115.431 29.096 114.415 27.8707 112.406 27.4537H112.397ZM33.1968 13.1914H25.6407V18.9006H33.1968V13.1914Z" fill="#AAB0B5"/>
</svg>